<svg width="52" height="42" viewBox="0 0 52 42" fill="none" xmlns="http://www.w3.org/2000/svg">
<path d="M5.14513 34.7099C5.01386 34.7099 4.86563 34.6896 4.73859 34.6207C4.42099 34.4586 4.23467 34.1059 4.27278 33.7654L5.10701 27.989H0.87234C0.389588 27.989 0 27.6161 0 27.154V1.39339C0 0.927225 0.389588 0.538086 0.87234 0.538086H40.4919C40.9747 0.538086 41.3642 0.927225 41.3642 1.39339V6.22934C41.3642 6.69145 40.9747 7.06438 40.4919 7.06438C40.0091 7.06438 39.6153 6.69145 39.6153 6.22934V2.22844H1.74469V26.319H6.11063C6.37318 26.319 6.61455 26.4244 6.77971 26.6027C6.94909 26.7811 7.02109 27.0283 6.98298 27.2594L6.352 31.7062L12.3356 26.5297C12.5007 26.3879 12.704 26.319 12.9284 26.319H14.9696C15.4523 26.319 15.8419 26.6919 15.8419 27.154C15.8419 27.6161 15.4523 27.989 14.9696 27.989H13.263L5.73798 34.4951C5.57283 34.6369 5.36957 34.7099 5.14513 34.7099Z" fill="#767475"/>
<path d="M45.6504 41.0741C45.4641 41.0741 45.2778 41.0214 45.1296 40.916L34.3947 33.3033H20.2806C19.7978 33.3033 19.4082 32.9304 19.4082 32.4683V15.3824C19.4082 14.9203 19.7978 14.5473 20.2806 14.5473C20.7633 14.5473 21.1529 14.9203 21.1529 15.3824V31.6333H34.6911C34.8775 31.6333 35.0638 31.686 35.212 31.7954L44.5918 38.4433L43.9989 32.5413C43.9777 32.3102 44.054 32.0792 44.2191 31.9008C44.3885 31.7224 44.6299 31.6333 44.8713 31.6333H50.0884V11.722H25.8322C25.3494 11.722 24.9599 11.3491 24.9599 10.8869C24.9599 10.4248 25.3494 10.0479 25.8322 10.0479H50.9819C51.4646 10.0479 51.8542 10.4248 51.8542 10.8869V32.4683C51.8542 32.9304 51.4646 33.3033 50.9819 33.3033H45.8368L46.5228 40.1661C46.5609 40.4863 46.3746 40.8065 46.0781 40.9687C45.9469 41.0579 45.7986 41.0741 45.6504 41.0741Z" fill="#767475"/>
</svg>
