<svg width="52" height="59" viewBox="0 0 52 59" fill="none" xmlns="http://www.w3.org/2000/svg">
<path d="M0 0V59H51.625V29.5H22.125V0H0ZM29.5 0V22.125H51.625L29.5 0Z" fill="black"/>
<path d="M10.575 57V46.5H15C16.12 46.5 17.105 46.72 17.955 47.16C18.815 47.6 19.48 48.215 19.95 49.005C20.43 49.795 20.67 50.71 20.67 51.75C20.67 52.79 20.43 53.705 19.95 54.495C19.48 55.285 18.815 55.9 17.955 56.34C17.105 56.78 16.12 57 15 57H10.575ZM12.075 55.695H14.91C15.78 55.695 16.53 55.53 17.16 55.2C17.8 54.87 18.295 54.41 18.645 53.82C18.995 53.22 19.17 52.53 19.17 51.75C19.17 50.96 18.995 50.27 18.645 49.68C18.295 49.09 17.8 48.63 17.16 48.3C16.53 47.97 15.78 47.805 14.91 47.805H12.075V55.695ZM26.1626 57.09C25.3626 57.09 24.6526 56.915 24.0326 56.565C23.4126 56.215 22.9226 55.735 22.5626 55.125C22.2026 54.505 22.0226 53.805 22.0226 53.025C22.0226 52.235 22.2026 51.535 22.5626 50.925C22.9226 50.315 23.4126 49.84 24.0326 49.5C24.6526 49.15 25.3626 48.975 26.1626 48.975C26.9526 48.975 27.6576 49.15 28.2776 49.5C28.9076 49.84 29.3976 50.315 29.7476 50.925C30.1076 51.525 30.2876 52.225 30.2876 53.025C30.2876 53.815 30.1076 54.515 29.7476 55.125C29.3976 55.735 28.9076 56.215 28.2776 56.565C27.6576 56.915 26.9526 57.09 26.1626 57.09ZM26.1626 55.83C26.6726 55.83 27.1276 55.715 27.5276 55.485C27.9376 55.255 28.2576 54.93 28.4876 54.51C28.7176 54.08 28.8326 53.585 28.8326 53.025C28.8326 52.455 28.7176 51.965 28.4876 51.555C28.2576 51.135 27.9376 50.81 27.5276 50.58C27.1276 50.35 26.6726 50.235 26.1626 50.235C25.6526 50.235 25.1976 50.35 24.7976 50.58C24.3976 50.81 24.0776 51.135 23.8376 51.555C23.5976 51.965 23.4776 52.455 23.4776 53.025C23.4776 53.585 23.5976 54.08 23.8376 54.51C24.0776 54.93 24.3976 55.255 24.7976 55.485C25.1976 55.715 25.6526 55.83 26.1626 55.83ZM35.7441 57.09C34.9341 57.09 34.2091 56.915 33.5691 56.565C32.9391 56.215 32.4441 55.735 32.0841 55.125C31.7241 54.515 31.5441 53.815 31.5441 53.025C31.5441 52.235 31.7241 51.535 32.0841 50.925C32.4441 50.315 32.9391 49.84 33.5691 49.5C34.2091 49.15 34.9341 48.975 35.7441 48.975C36.4641 48.975 37.1041 49.12 37.6641 49.41C38.2341 49.69 38.6741 50.11 38.9841 50.67L37.8891 51.375C37.6291 50.985 37.3091 50.7 36.9291 50.52C36.5591 50.33 36.1591 50.235 35.7291 50.235C35.2091 50.235 34.7441 50.35 34.3341 50.58C33.9241 50.81 33.5991 51.135 33.3591 51.555C33.1191 51.965 32.9991 52.455 32.9991 53.025C32.9991 53.595 33.1191 54.09 33.3591 54.51C33.5991 54.93 33.9241 55.255 34.3341 55.485C34.7441 55.715 35.2091 55.83 35.7291 55.83C36.1591 55.83 36.5591 55.74 36.9291 55.56C37.3091 55.37 37.6291 55.08 37.8891 54.69L38.9841 55.38C38.6741 55.93 38.2341 56.355 37.6641 56.655C37.1041 56.945 36.4641 57.09 35.7441 57.09ZM43.1284 57.09C42.4684 57.09 41.8384 57 41.2384 56.82C40.6484 56.64 40.1834 56.42 39.8434 56.16L40.4434 55.02C40.7834 55.25 41.2034 55.445 41.7034 55.605C42.2034 55.765 42.7134 55.845 43.2334 55.845C43.9034 55.845 44.3834 55.75 44.6734 55.56C44.9734 55.37 45.1234 55.105 45.1234 54.765C45.1234 54.515 45.0334 54.32 44.8534 54.18C44.6734 54.04 44.4334 53.935 44.1334 53.865C43.8434 53.795 43.5184 53.735 43.1584 53.685C42.7984 53.625 42.4384 53.555 42.0784 53.475C41.7184 53.385 41.3884 53.265 41.0884 53.115C40.7884 52.955 40.5484 52.74 40.3684 52.47C40.1884 52.19 40.0984 51.82 40.0984 51.36C40.0984 50.88 40.2334 50.46 40.5034 50.1C40.7734 49.74 41.1534 49.465 41.6434 49.275C42.1434 49.075 42.7334 48.975 43.4134 48.975C43.9334 48.975 44.4584 49.04 44.9884 49.17C45.5284 49.29 45.9684 49.465 46.3084 49.695L45.6934 50.835C45.3334 50.595 44.9584 50.43 44.5684 50.34C44.1784 50.25 43.7884 50.205 43.3984 50.205C42.7684 50.205 42.2984 50.31 41.9884 50.52C41.6784 50.72 41.5234 50.98 41.5234 51.3C41.5234 51.57 41.6134 51.78 41.7934 51.93C41.9834 52.07 42.2234 52.18 42.5134 52.26C42.8134 52.34 43.1434 52.41 43.5034 52.47C43.8634 52.52 44.2234 52.59 44.5834 52.68C44.9434 52.76 45.2684 52.875 45.5584 53.025C45.8584 53.175 46.0984 53.385 46.2784 53.655C46.4684 53.925 46.5634 54.285 46.5634 54.735C46.5634 55.215 46.4234 55.63 46.1434 55.98C45.8634 56.33 45.4684 56.605 44.9584 56.805C44.4484 56.995 43.8384 57.09 43.1284 57.09Z" fill="white"/>
</svg>
