<svg width="20" height="24" viewBox="0 0 20 24" fill="none" xmlns="http://www.w3.org/2000/svg">
<path d="M12.4795 13.0557C13.0627 12.4674 13.0586 11.5176 12.4702 10.9344L2.88272 1.43021C2.29438 0.846985 1.34464 0.85113 0.761418 1.43947C0.178194 2.0278 0.182338 2.97754 0.770674 3.56077L9.2929 12.0089L0.844722 20.5312C0.261498 21.1195 0.265642 22.0692 0.853978 22.6525C1.44232 23.2357 2.39205 23.2316 2.97528 22.6432L12.4795 13.0557ZM10.0065 13.5058L11.4207 13.4997L11.4077 10.4997L9.99346 10.5059L10.0065 13.5058Z" fill="black" fill-opacity="0.45"/>
<path d="M19.4795 13.0557C20.0627 12.4674 20.0586 11.5176 19.4702 10.9344L9.88272 1.43021C9.29438 0.846985 8.34464 0.85113 7.76142 1.43947C7.17819 2.0278 7.18234 2.97754 7.77067 3.56077L16.2929 12.0089L7.84472 20.5312C7.2615 21.1195 7.26564 22.0692 7.85398 22.6525C8.44232 23.2357 9.39205 23.2316 9.97528 22.6432L19.4795 13.0557ZM17.0065 13.5058L18.4207 13.4997L18.4077 10.4997L16.9935 10.5059L17.0065 13.5058Z" fill="black" fill-opacity="0.45"/>
</svg>
