<svg width="52" height="59" viewBox="0 0 52 59" fill="none" xmlns="http://www.w3.org/2000/svg">
<path d="M0 0V59H51.625V29.5H22.125V0H0ZM29.5 0V22.125H51.625L29.5 0Z" fill="black"/>
<path d="M11.94 51.03H17.34V52.305H11.94V51.03ZM12.075 55.695H18.195V57H10.575V46.5H17.985V47.805H12.075V55.695ZM19.083 57L22.503 52.56L22.488 53.295L19.233 49.05H20.838L23.328 52.32H22.713L25.203 49.05H26.778L23.478 53.325L23.493 52.56L26.943 57H25.308L22.683 53.52L23.268 53.61L20.688 57H19.083ZM31.7157 57.09C30.9057 57.09 30.1807 56.915 29.5407 56.565C28.9107 56.215 28.4157 55.735 28.0557 55.125C27.6957 54.515 27.5157 53.815 27.5157 53.025C27.5157 52.235 27.6957 51.535 28.0557 50.925C28.4157 50.315 28.9107 49.84 29.5407 49.5C30.1807 49.15 30.9057 48.975 31.7157 48.975C32.4357 48.975 33.0757 49.12 33.6357 49.41C34.2057 49.69 34.6457 50.11 34.9557 50.67L33.8607 51.375C33.6007 50.985 33.2807 50.7 32.9007 50.52C32.5307 50.33 32.1307 50.235 31.7007 50.235C31.1807 50.235 30.7157 50.35 30.3057 50.58C29.8957 50.81 29.5707 51.135 29.3307 51.555C29.0907 51.965 28.9707 52.455 28.9707 53.025C28.9707 53.595 29.0907 54.09 29.3307 54.51C29.5707 54.93 29.8957 55.255 30.3057 55.485C30.7157 55.715 31.1807 55.83 31.7007 55.83C32.1307 55.83 32.5307 55.74 32.9007 55.56C33.2807 55.37 33.6007 55.08 33.8607 54.69L34.9557 55.38C34.6457 55.93 34.2057 56.355 33.6357 56.655C33.0757 56.945 32.4357 57.09 31.7157 57.09ZM40.2429 57.09C39.3929 57.09 38.6429 56.915 37.9929 56.565C37.3529 56.215 36.8529 55.735 36.4929 55.125C36.1429 54.515 35.9679 53.815 35.9679 53.025C35.9679 52.235 36.1379 51.535 36.4779 50.925C36.8279 50.315 37.3029 49.84 37.9029 49.5C38.5129 49.15 39.1979 48.975 39.9579 48.975C40.7279 48.975 41.4079 49.145 41.9979 49.485C42.5879 49.825 43.0479 50.305 43.3779 50.925C43.7179 51.535 43.8879 52.25 43.8879 53.07C43.8879 53.13 43.8829 53.2 43.8729 53.28C43.8729 53.36 43.8679 53.435 43.8579 53.505H37.0929V52.47H43.1079L42.5229 52.83C42.5329 52.32 42.4279 51.865 42.2079 51.465C41.9879 51.065 41.6829 50.755 41.2929 50.535C40.9129 50.305 40.4679 50.19 39.9579 50.19C39.4579 50.19 39.0129 50.305 38.6229 50.535C38.2329 50.755 37.9279 51.07 37.7079 51.48C37.4879 51.88 37.3779 52.34 37.3779 52.86V53.1C37.3779 53.63 37.4979 54.105 37.7379 54.525C37.9879 54.935 38.3329 55.255 38.7729 55.485C39.2129 55.715 39.7179 55.83 40.2879 55.83C40.7579 55.83 41.1829 55.75 41.5629 55.59C41.9529 55.43 42.2929 55.19 42.5829 54.87L43.3779 55.8C43.0179 56.22 42.5679 56.54 42.0279 56.76C41.4979 56.98 40.9029 57.09 40.2429 57.09ZM45.8875 57V45.87H47.3275V57H45.8875Z" fill="white"/>
</svg>
