<svg width="88" height="49" viewBox="0 0 88 49" fill="none" xmlns="http://www.w3.org/2000/svg">
<path d="M37.4669 5.5L84.999 5.02038C86.1115 5.00916 87.0192 5.90782 87.0192 7.02028V9.5C87.0192 9.22303 86.7962 8.9977 86.5193 8.99483L39.5922 8.51005C38.978 8.50371 38.4007 8.21545 38.0266 7.72824L37.9621 7.64421C37.8884 7.54827 37.8236 7.44584 37.7684 7.33819L37.1595 6.14988C37.1084 6.05014 37.0646 5.94661 37.0339 5.83883C36.9607 5.58208 36.9682 5.49886 37.0827 5.5H37.4669Z" fill="#0F3076"/>
<path d="M1.47461 3.5C1.47461 2.11929 2.5939 1 3.97461 1H33.1006C34.1354 1 35.0633 1.63754 35.4343 2.60355L37.029 6.75504C37.5485 8.10744 38.8475 9 40.2963 9H84.7873C86.168 9 87.2873 10.1193 87.2873 11.5V45.5C87.2873 46.8807 86.168 48 84.7873 48H3.97461C2.5939 48 1.47461 46.8807 1.47461 45.5V3.5Z" stroke="#919191"/>
<path d="M36.3145 5H85.4033C86.5079 5 87.4033 5.89543 87.4033 7V11.5" stroke="#919191"/>
</svg>
