<svg width="52" height="60" viewBox="0 0 52 60" fill="none" xmlns="http://www.w3.org/2000/svg">
<path d="M0 0V59H51.625V29.5H22.125V0H0ZM29.5 0V22.125H51.625L29.5 0Z" fill="black"/>
<path d="M10.575 57V46.5H12.075V57H10.575ZM24.9536 48.975C25.5936 48.975 26.1586 49.1 26.6486 49.35C27.1386 49.6 27.5186 49.98 27.7886 50.49C28.0686 51 28.2086 51.645 28.2086 52.425V57H26.7686V52.59C26.7686 51.82 26.5886 51.24 26.2286 50.85C25.8686 50.46 25.3636 50.265 24.7136 50.265C24.2336 50.265 23.8136 50.365 23.4536 50.565C23.0936 50.765 22.8136 51.06 22.6136 51.45C22.4236 51.84 22.3286 52.325 22.3286 52.905V57H20.8886V52.59C20.8886 51.82 20.7086 51.24 20.3486 50.85C19.9986 50.46 19.4936 50.265 18.8336 50.265C18.3636 50.265 17.9486 50.365 17.5886 50.565C17.2286 50.765 16.9486 51.06 16.7486 51.45C16.5486 51.84 16.4486 52.325 16.4486 52.905V57H15.0086V49.05H16.3886V51.165L16.1636 50.625C16.4136 50.105 16.7986 49.7 17.3186 49.41C17.8386 49.12 18.4436 48.975 19.1336 48.975C19.8936 48.975 20.5486 49.165 21.0986 49.545C21.6486 49.915 22.0086 50.48 22.1786 51.24L21.5936 51C21.8336 50.39 22.2536 49.9 22.8536 49.53C23.4536 49.16 24.1536 48.975 24.9536 48.975ZM34.3382 60C33.6082 60 32.8982 59.895 32.2082 59.685C31.5282 59.485 30.9732 59.195 30.5432 58.815L31.2332 57.705C31.6032 58.025 32.0582 58.275 32.5982 58.455C33.1382 58.645 33.7032 58.74 34.2932 58.74C35.2332 58.74 35.9232 58.52 36.3632 58.08C36.8032 57.64 37.0232 56.97 37.0232 56.07V54.39L37.1732 52.815L37.0982 51.225V49.05H38.4632V55.92C38.4632 57.32 38.1132 58.35 37.4132 59.01C36.7132 59.67 35.6882 60 34.3382 60ZM34.1582 56.67C33.3882 56.67 32.6982 56.51 32.0882 56.19C31.4882 55.86 31.0082 55.405 30.6482 54.825C30.2982 54.245 30.1232 53.575 30.1232 52.815C30.1232 52.045 30.2982 51.375 30.6482 50.805C31.0082 50.225 31.4882 49.775 32.0882 49.455C32.6982 49.135 33.3882 48.975 34.1582 48.975C34.8382 48.975 35.4582 49.115 36.0182 49.395C36.5782 49.665 37.0232 50.085 37.3532 50.655C37.6932 51.225 37.8632 51.945 37.8632 52.815C37.8632 53.675 37.6932 54.39 37.3532 54.96C37.0232 55.53 36.5782 55.96 36.0182 56.25C35.4582 56.53 34.8382 56.67 34.1582 56.67ZM34.3232 55.41C34.8532 55.41 35.3232 55.3 35.7332 55.08C36.1432 54.86 36.4632 54.555 36.6932 54.165C36.9332 53.775 37.0532 53.325 37.0532 52.815C37.0532 52.305 36.9332 51.855 36.6932 51.465C36.4632 51.075 36.1432 50.775 35.7332 50.565C35.3232 50.345 34.8532 50.235 34.3232 50.235C33.7932 50.235 33.3182 50.345 32.8982 50.565C32.4882 50.775 32.1632 51.075 31.9232 51.465C31.6932 51.855 31.5782 52.305 31.5782 52.815C31.5782 53.325 31.6932 53.775 31.9232 54.165C32.1632 54.555 32.4882 54.86 32.8982 55.08C33.3182 55.3 33.7932 55.41 34.3232 55.41Z" fill="white"/>
</svg>
